<svg xmlns="http://www.w3.org/2000/svg" viewBox="0 0 720 560"><defs><linearGradient id="a" x1="0" y1="0" x2="1" y2="1"><stop stop-color="#8fd9e8"/><stop offset=".55" stop-color="#8dd9c5"/><stop offset="1" stop-color="#b98bea"/></linearGradient><filter id="b"><feGaussianBlur stdDeviation="28"/></filter></defs><circle cx="530" cy="150" r="130" fill="#8fd9e8" opacity=".25" filter="url(#b)"/><circle cx="180" cy="390" r="150" fill="#b98bea" opacity=".2" filter="url(#b)"/><path d="M360 92c-93 0-168 75-168 168 0 19 3 37 9 54-43 17-73 59-73 108 0 64 52 116 116 116 31 0 59-12 80-31 22 26 55 43 92 43 45 0 84-25 103-62 13 7 28 11 44 11 53 0 96-43 96-96 0-44-30-82-71-93 4-16 6-32 6-50C594 167 489 92 360 92Z" fill="url(#a)" opacity=".88"/><g fill="none" stroke="#fff" stroke-width="8" stroke-linecap="round" opacity=".85"><path d="M270 177v75l-54 40v74l70 45"/><path d="M350 125v83l-43 43v86l61 50v83"/><path d="M441 145v75l54 43v78l-61 50"/><path d="M506 245h-68l-44 45"/><path d="M277 339h73l38-38"/></g><g fill="#fff" opacity=".9"><circle cx="270" cy="177" r="9"/><circle cx="350" cy="208" r="9"/><circle cx="441" cy="220" r="9"/><circle cx="394" cy="344" r="9"/><circle cx="350" cy="339" r="9"/></g></svg>